<?xml version="1.0" encoding="utf-8"?>
<!-- Generator: Adobe Illustrator 27.5.0, SVG Export Plug-In . SVG Version: 6.00 Build 0)  -->
<svg version="1.1" id="图层_1" xmlns="http://www.w3.org/2000/svg" xmlns:xlink="http://www.w3.org/1999/xlink" x="0px" y="0px"
	 viewBox="0 0 122 122" style="enable-background:new 0 0 122 122;" xml:space="preserve">
<style type="text/css">
	.st0{opacity:0.8;}
	.st1{fill-rule:evenodd;clip-rule:evenodd;fill:#23A9F2;}
	.st2{filter:url(#filter-2);}
	.st3{fill-rule:evenodd;clip-rule:evenodd;}
	.st4{fill:none;stroke:#0E1320;stroke-width:4;}
	.st5{fill-rule:evenodd;clip-rule:evenodd;fill:#FFFFFF;}
</style>
<filter  filterUnits="objectBoundingBox" height="200%" id="filter-2" width="200%" x="-50%" y="-50%">
	<feOffset  dx="7" dy="-10" in="SourceAlpha" result="shadowOffsetInner1"></feOffset>
	<feComposite  in="shadowOffsetInner1" in2="SourceAlpha" k2="-1" k3="1" operator="arithmetic" result="shadowInnerInner1">
		</feComposite>
	<feColorMatrix  in="shadowInnerInner1" type="matrix" values="0 0 0 0 0   0 0 0 0 0   0 0 0 0 0  0 0 0 0.1 0"></feColorMatrix>
</filter>
<g id="Page-1">
	<g id="icon" transform="translate(-98.000000, 2.000000)">
		<g id="body" transform="translate(159.000000, 45.000000) rotate(-90.000000) translate(-159.000000, -45.000000) ">
			<g class="st0">
				<path id="path-1" class="st1" d="M130.5,104c32.6,0,59-26.4,59-59s-26.4-59-59-59s-29.9,27.7-29.9,60.3S97.9,104,130.5,104z"/>
			</g>
			<g class="st2">
				<path id="path-1_00000164480673139850861840000010971223452404444303_" class="st3" d="M130.5,104c32.6,0,59-26.4,59-59
					s-26.4-59-59-59s-29.9,27.7-29.9,60.3S97.9,104,130.5,104z"/>
			</g>
			<g>
				<path id="path-1_00000011736050287865229400000017456871844308781741_" class="st4" d="M130.5,104c32.6,0,59-26.4,59-59
					s-26.4-59-59-59s-29.9,27.7-29.9,60.3S97.9,104,130.5,104z"/>
			</g>
		</g>
		<circle id="left-eye" class="st3" cx="139" cy="52" r="7"/>
		<circle id="right-eye" class="st3" cx="183" cy="52" r="7"/>
		<g id="light" transform="translate(112.000000, 10.000000)">
			<circle class="st5" cx="2" cy="42" r="2"/>
			<path id="light-line" class="st5" d="M27.7,19.2c0.5-0.2,0.6-0.8,0.2-1.2l-1.3-1.5c-0.4-0.4-1.1-0.5-1.6-0.3c0,0-3.9,1.9-7.1,4.2
				s-3.3,2.4-4.5,3.5c-3.5,3.2-9.2,11.1-9.2,11.1c-0.3,0.4-0.3,1.1,0.1,1.5l1.3,1.5C6,38.5,6.6,38.5,6.9,38c0,0,2.3-3.7,5.1-6.9
				s1.8-2.1,3.8-4.2C18.7,23.7,27.7,19.2,27.7,19.2z"/>
		</g>
		<path id="mouth" class="st3" d="M159.5,92.3c9.7,0,17.5-7.8,17.5-17.5s-7.3-4.3-17-4.3s-18-5.3-18,4.3S149.8,92.3,159.5,92.3z"/>
	</g>
</g>
</svg>
